<?xml version="1.0" encoding="utf-8"?>
<!-- Generator: Adobe Illustrator 22.1.0, SVG Export Plug-In . SVG Version: 6.00 Build 0)  -->
<svg version="1.1" id="Layer_1" xmlns="http://www.w3.org/2000/svg" xmlns:xlink="http://www.w3.org/1999/xlink" x="0px" y="0px"
	 viewBox="0 0 800 800" style="enable-background:new 0 0 800 800;" xml:space="preserve">
<style type="text/css">
	.st0{fill:#000101;}
</style>
<path class="st0" d="M693.4,511.9c1.2,1.5,3.1,2.9,5.4,3.4l0,0c28,10.6,71.3-71,71.3-71c-15,0.3-36.7,20.7-53.4,39l0,0l-19,17.6
	c7.8-19.6,13.8-39.9,17.6-61.2c0-0.2,8.9-23.7,21.3-45c2.6,1.7,6,2.4,9.3,1.8c6.1-0.9,11-5.7,11.9-11.8c1.5-9.6-6.7-17.9-16.4-16.2
	c-6,0.9-10.7,5.8-11.6,11.8c-0.6,4,0.6,7.8,2.8,10.7c-5,6-10.2,14.2-14.1,25.5v0.2c1.1-10.6,1.7-21.3,1.7-32.1
	c0-20.2-2-40.1-5.7-59.2l0.2,0.3c39.5-59.7,17.6-128.8,17.6-128.8C703.8,214.5,708.7,300,708.7,300v0.3c0-0.2,0-0.2-0.2-0.3l0,0
	c0,0,0-0.2-0.2-0.5c-4.9-17.4-11.3-34.1-19.1-50.2l0.3,0.5c0,0-0.6-29.5,3.5-50.6c2.4,1.4,5.5,2,8.6,1.4c5.5-0.9,9.9-5.4,10.9-10.9
	c1.4-8.7-5.7-16.2-14.4-15.5c-6.1,0.6-11.2,5.5-11.9,11.6c-0.5,4,0.8,7.6,3.1,10.2c-2.8,5.8-5.8,17.1-7.2,39.2l0.2,0.5
	c-0.9-1.7-1.8-3.4-2.8-5c-6-10.6-8.6-22.6-6.7-34.6c0.6-3.7,0.9-7.2,0.9-10.7c0.9-12.5-0.2-28.3-6.7-44.4
	C652.1,104.5,614,82.8,614,82.8s12.2,35.8,28.6,75l0,0l12.9,37.2c-3.5-4.6-7.3-9.2-11.2-13.6l0,0l-0.2-0.2
	c-14.2-16.5-30.3-31.4-47.6-44.7l0,0c0,0-14.7-22.5-13-52.5c2.4,0.9,5.2,1.2,8,0.6c5.2-1.2,9.2-5.7,9.9-11c1.2-9-6.4-16.5-15.5-15
	c-5.5,0.9-9.8,5.2-10.9,10.7c-0.8,4.4,0.6,8.6,3.4,11.5c-1.5,4.9-2.8,12.2-2.8,22.8c0,0-20.3-39.8-43.4-50.6
	c-23.1-10.9-31.2-14.1-31.2-14.1s11.8,37.3,60.7,75.1c-16.5-9.3-101.9-78.3-144.7-56.9c7.5,14.8,44.5,33,70.7,36.4
	c26.9,3.5,53.1,11.9,76.2,26.2c18.1,11,34.1,23.3,48.3,36.4c-22.9-9.5-70.4-27.5-96.4-28.6c0,0,39.2,44.7,98.4,52.9
	c16.2,2.3,31.1,10.7,40.5,24.2c11.5,16.1,21,32.7,28.8,49.4c-14.8-19.9-37.5-40.2-70.2-46.5c0,0,26.2,41.5,59.7,70.1
	c20.7,17.7,34.7,42.1,38.6,69c0.5,2.6,0.8,5.2,1.1,7.8c-9.2-19.3-28.8-50.6-62.7-61.6c0,0,16.2,56.9,51.4,73.1
	c2.6,1.2,12.7,30.4,12.2,38.6c-1.2,22.2-5.5,39.6-14.2,66.2c0.6-25.2-3.1-60.6-23.7-84.4c0,0-6.9,48.6-1.8,82.8
	c5,35-2.8,70.8-23.4,99.6c-0.3,0.3-0.5,0.8-0.8,1.1c6.1-16.7,12.1-41.5,10.9-73.6c0,0-23.7,41.6-28,71.9
	c-2.6,19.1-11.6,36.9-26.2,49.6c-8.6,7.5-17.6,14.4-27.2,20.7c8.7-14.1,22.9-41.2,22-64.9c0,0-30.1,19.3-41.3,50.3
	c-7.8,21.4-25.4,37.9-47.6,43.1c-0.2,0-0.3,0-0.5,0.2c-6,1.4-11.9,2.8-17.6,4.3c6.7-12.1,15.1-30.9,15-49.9c0,0-15.6,10.4-26.6,27.4
	c-12.5,19.4-30.9,34.4-52.5,42.7c-11,4.3-21,8.6-30,12.9c-9-4.3-19-8.6-30-12.9c-21.6-8.3-39.8-23.4-52.5-42.7
	c-11-17-26.6-27.4-26.6-27.4c-0.2,19,8.3,37.8,15,49.9c-5.7-1.5-11.5-2.9-17.6-4.3c-0.2,0-0.3,0-0.5-0.2
	c-22.2-5.2-39.8-21.7-47.6-43.1c-11.3-31.1-41.3-50.3-41.3-50.3c-0.9,23.7,13.3,50.6,22,64.9c-9.6-6.3-18.7-13.2-27.2-20.7
	c-14.5-12.7-23.6-30.4-26.2-49.6c-4.1-30.1-28-71.9-28-71.9c-1.2,32,4.7,56.9,10.9,73.6c-0.3-0.3-0.5-0.8-0.8-1.1
	c-20.7-28.8-28.6-64.6-23.4-99.6c4.9-34-1.8-82.8-1.8-82.8c-20.7,23.9-24.2,59.2-23.7,84.4c-8.6-26.6-13-44.1-14.2-66.2
	c-0.5-8.3,9.5-37.3,12.2-38.6c35.2-16.1,51.4-73.1,51.4-73.1c-33.8,11-53.5,42.4-62.7,61.6c0.3-2.6,0.6-5.2,1.1-7.8
	c4-26.9,17.9-51.2,38.6-69c33.3-28.6,59.7-70.1,59.7-70.1c-32.6,6.3-55.2,26.5-70.2,46.5c7.8-16.7,17.3-33.2,28.8-49.4
	c9.5-13.5,24.3-21.9,40.5-24.2c59.2-8.3,98.4-52.9,98.4-52.9c-26,1.1-73.4,19.1-96.4,28.6c14.2-13.2,30.3-25.4,48.3-36.4
	c23.3-14.2,49.3-22.8,76.2-26.2c26-3.4,63.2-21.6,70.7-36.4c-42.8-21.4-128,47.6-144.7,56.9c49-37.8,60.7-75.1,60.7-75.1
	s-8.1,3.4-31.2,14.1s-43.4,50.6-43.4,50.6c0-10.6-1.2-17.9-2.8-22.8c2.8-2.9,4.1-7,3.4-11.5c-0.9-5.4-5.4-9.8-10.9-10.7
	c-9-1.5-16.7,6.1-15.5,15c0.8,5.4,4.7,9.6,9.9,11c2.9,0.6,5.7,0.5,8-0.6c1.7,30.1-13,52.5-13,52.5l0,0
	c-17.4,13.2-33.3,28.1-47.6,44.7l-0.2,0.2l0,0c-3.8,4.4-7.5,9-11.2,13.6l12.9-37.2l0,0c16.5-39.2,28.6-75,28.6-75
	s-37.9,21.7-52.9,58.3c-6.6,16.1-7.6,31.7-6.7,44.4c0,3.4,0.3,7,0.9,10.7c1.8,11.9-0.8,24.2-6.7,34.6c-0.9,1.7-1.8,3.4-2.8,5
	l0.2-0.5c-1.4-21.9-4.4-33.3-7.2-39.2c2.3-2.8,3.5-6.4,3.1-10.2c-0.8-6.1-5.8-11-11.9-11.6c-8.7-0.8-15.8,6.7-14.4,15.5
	c0.9,5.5,5.4,9.9,10.9,10.9c3.2,0.5,6.1,0,8.6-1.4c4.1,21.1,3.5,50.6,3.5,50.6l0.3-0.5c-7.8,16.1-14.1,32.7-19.1,50.2
	c-0.2,0.3-0.2,0.5-0.2,0.5l0,0c0,0.2,0,0.2-0.2,0.3V300c0,0,4.9-85.5-23.6-103.1c0,0-21.9,69.1,17.6,128.8l0.2-0.3
	c-3.7,19.1-5.7,39-5.7,59.2c0,10.9,0.6,21.6,1.7,32.1v-0.2c-3.8-11.3-9-19.7-14.1-25.5c2.1-2.9,3.4-6.6,2.8-10.7
	c-0.9-6-5.7-10.9-11.6-11.8c-9.6-1.5-17.9,6.6-16.4,16.2c0.9,6,6,10.9,11.9,11.8c3.5,0.5,6.7-0.3,9.3-1.8
	c12.4,21.3,21.1,44.8,21.3,45c3.8,21.3,9.8,41.8,17.6,61.2l-19-17.6l0,0c-16.7-18.2-38.4-38.7-53.4-39c0,0,43.3,81.4,71.3,71l0,0
	c2.3-0.5,4.1-1.8,5.4-3.4c0.2-0.2,0.2-0.2,0.3-0.2l0,0l0,0c7.8,17.3,17,33.7,27.5,49.1l-0.2-0.3c0,0-20.5-11.5-34.4-13.8
	c-1.8-6-7.6-10.1-14.2-9.3c-6.1,0.6-11,5.7-11.6,11.6c-0.9,8,5.4,14.8,13.2,14.8c6.7,0,12.4-5,13.2-11.6
	c14.7,8.7,43.1,25.5,49.6,29.1v-0.2c3.7,4.4,7.5,8.9,11.5,13.2l0,0l0,0c7,7.6,14.5,15,22.3,22L133,602.7l0,0
	c-12.1-3.8-24-7.5-32.9-9.9c0,0,24.3,33.3,52.9,39.3c1.8,0.5,3.8,0.8,6,0.9c4,0.2,7.8-0.2,11.2-0.5c17.9-2.3,35.8,2.3,50.9,12.1
	c2,1.2,4,2.4,5.8,3.8l0,0c-10.1,4.1-16.4,8-20.3,11.2c-2.8-2.1-6.3-3.2-10.1-2.6c-6,0.9-10.7,5.8-11.3,11.9
	c-0.8,8.6,6.6,15.8,15.3,14.4c5.4-0.8,9.8-5,10.9-10.2c0.6-2.9,0.3-5.8-0.9-8.3c18.2-7.8,32.6-6.7,32.6-6.7l0,0
	c12.2,6.7,25.1,12.5,38.4,17.4c0,0-59.2,8.3-61.6,15.8c-2.4,7.5,61.8,23.1,75.1-11.2l-0.3-0.2c6.4,2,12.9,3.7,19.3,5.2l0,0l0.8,0.2
	c2.4,0.6,4.9,1.1,7.2,1.7h0.2l5.2,1.2c14.2,3.4,36.9,9.9,61.5,21.9c-42.8,22-59.5,42.2-59.5,47.4c0,8.9,3.5,11.5,3.5,11.5
	c19.6-23.9,43.4-41.2,66.5-53.5c23.1,12.5,47,29.8,66.5,53.5c0,0,3.5-2.8,3.5-11.5c0-5.4-16.7-25.4-59.5-47.4
	c24.6-11.9,47.3-18.5,61.5-21.9l5.2-1.2h0.2c2.4-0.5,4.9-1.1,7.2-1.7l0.8-0.2l0,0c6.4-1.5,12.9-3.2,19.3-5.2l-0.3,0.2
	c13.3,34.3,77.6,18.5,75.1,11.2c-2.4-7.5-61.6-15.8-61.6-15.8c13.3-5,26-10.9,38.4-17.4l0,0c0,0,14.4-0.9,32.6,6.7
	c-1.1,2.4-1.5,5.2-0.9,8.3c1.1,5.4,5.5,9.5,10.9,10.2c8.7,1.4,16.1-5.8,15.3-14.4c-0.6-6-5.4-11-11.3-11.9
	c-3.8-0.6-7.3,0.5-10.1,2.6c-4-3.2-10.4-7-20.3-11.2l0,0c2-1.2,4-2.4,5.8-3.8c15-9.8,33-14.4,50.9-12.1c3.4,0.5,7,0.6,11.2,0.5
	c2.1,0,4.1-0.5,6-0.9c28.5-6,52.9-39.3,52.9-39.3c-8.9,2.4-20.8,6.1-32.9,9.9l0,0l-50.9,13.6c7.8-7,15.3-14.4,22.3-22l0,0l0,0
	c4-4.3,7.8-8.7,11.5-13.2v0.2c6.4-3.5,34.9-20.3,49.6-29.1c0.8,6.6,6.4,11.6,13.2,11.6c7.8,0,14.1-6.7,13.2-14.8
	c-0.6-6.1-5.7-11-11.6-11.6c-6.6-0.8-12.4,3.4-14.2,9.3c-13.9,2.3-34.4,13.8-34.4,13.8l-0.2,0.3c10.6-15.5,19.9-31.8,27.5-49.1l0,0
	l0,0C693.2,511.7,693.2,511.9,693.4,511.9z"/>
</svg>
